<?xml version="1.0" standalone="no"?>
<!DOCTYPE svg PUBLIC "-//W3C//DTD SVG 20010904//EN"
 "http://www.w3.org/TR/2001/REC-SVG-20010904/DTD/svg10.dtd">
<svg version="1.0" xmlns="http://www.w3.org/2000/svg"
 width="700.000000pt" height="200.000000pt" viewBox="0 0 700.000000 200.000000"
 preserveAspectRatio="xMidYMid meet">
<metadata>
Created by potrace 1.13, written by Peter Selinger 2001-2015
</metadata>
<g transform="translate(0.000000,200.000000) scale(0.100000,-0.100000)"
fill="#000000" stroke="none">
<path d="M889 1669 c-64 -9 -175 -49 -235 -84 -338 -198 -444 -638 -231 -957
90 -135 210 -226 361 -274 350 -111 723 79 844 429 31 90 41 256 22 350 -15
72 -67 194 -78 183 -256 -260 -818 -806 -828 -806 -26 0 -118 65 -165 117
-121 136 -165 309 -123 496 23 104 67 180 154 268 59 59 93 84 155 113 100 48
90 42 168 101 36 28 73 55 83 62 16 10 12 12 -26 11 -25 0 -70 -4 -101 -9z"/>
<path d="M1278 1670 c-138 -23 -247 -80 -356 -185 -88 -84 -133 -152 -176
-268 -28 -76 -30 -92 -30 -212 0 -115 3 -139 28 -209 48 -141 -1 -171 461 286
224 222 414 404 421 406 41 10 183 -116 237 -208 45 -78 67 -165 67 -270 0
-175 -52 -295 -180 -416 -64 -61 -122 -99 -183 -121 -26 -9 -68 -34 -94 -56
-26 -21 -66 -50 -90 -64 -24 -14 -43 -27 -43 -30 0 -3 37 -3 83 0 371 27 656
348 634 716 -10 179 -72 316 -196 442 -151 151 -375 224 -583 189z"/>
<path d="M4453 1562 l-153 -77 0 -552 0 -553 155 0 155 0 0 630 c0 347 -1 630
-2 629 -2 0 -72 -35 -155 -77z"/>
<path d="M2247 1583 c-4 -3 -7 -46 -7 -95 l0 -88 180 0 180 0 0 -510 0 -510
170 0 170 0 0 510 0 510 180 0 181 0 -3 93 -3 92 -521 3 c-286 1 -524 -1 -527
-5z"/>
<path d="M3523 1235 c-130 -29 -235 -112 -293 -229 -63 -128 -52 -299 30 -424
125 -193 337 -261 613 -197 57 13 165 50 175 59 2 3 -65 126 -73 134 -1 1 -36
-9 -78 -23 -106 -35 -194 -34 -262 3 -69 38 -105 93 -112 170 l-6 62 272 0
271 0 0 58 c0 65 -22 168 -46 214 -30 58 -102 124 -167 153 -52 24 -78 29
-162 32 -62 1 -124 -3 -162 -12z m214 -111 c37 -24 56 -73 61 -157 l5 -78
-139 3 -139 3 0 76 c1 89 22 134 75 162 39 20 99 16 137 -9z"/>
<path d="M5190 1234 c-217 -57 -353 -209 -367 -408 -18 -254 169 -442 461
-463 119 -8 296 29 296 63 0 8 -14 42 -32 78 -31 63 -32 64 -62 55 -44 -13
-124 -13 -174 1 -49 13 -109 67 -135 121 -40 85 -27 233 28 305 52 68 170 99
272 71 l52 -14 33 66 c18 36 34 69 36 72 4 9 -87 45 -146 58 -72 15 -195 13
-262 -5z"/>
<path d="M6056 1235 c-117 -30 -221 -100 -279 -188 -52 -78 -70 -151 -65 -261
3 -77 9 -102 38 -164 109 -236 425 -332 687 -208 278 133 340 502 117 705 -62
57 -90 74 -173 103 -75 27 -244 33 -325 13z m208 -109 c98 -41 148 -235 113
-439 -25 -144 -79 -210 -170 -209 -50 1 -80 21 -110 74 -37 64 -51 140 -50
273 0 100 4 130 23 180 26 68 52 102 95 121 39 17 58 17 99 0z"/>
</g>
</svg>
